<svg width="500" height="373" viewBox="0 0 500 373" fill="none" xmlns="http://www.w3.org/2000/svg">
<path d="M500 327.4H0V327.65H500V327.4Z" fill="#EBEBEB"/>
<path d="M449.9 343.49H416.78V343.74H449.9V343.49Z" fill="#EBEBEB"/>
<path d="M331.22 346.21H322.53V346.46H331.22V346.21Z" fill="#EBEBEB"/>
<path d="M415.78 334.21H396.59V334.46H415.78V334.21Z" fill="#EBEBEB"/>
<path d="M95.65 335.89H52.46V336.14H95.65V335.89Z" fill="#EBEBEB"/>
<path d="M110.89 335.89H104.56V336.14H110.89V335.89Z" fill="#EBEBEB"/>
<path d="M225.15 340.11H131.47V340.36H225.15V340.11Z" fill="#EBEBEB"/>
<path d="M237 282.8H43.91C42.3973 282.797 40.9475 282.195 39.8789 281.124C38.8102 280.054 38.21 278.603 38.21 277.09V5.66C38.2232 4.15603 38.8292 2.71798 39.8964 1.65822C40.9637 0.598458 42.406 0.00257639 43.91 0H237C238.514 0 239.967 0.601588 241.038 1.67242C242.108 2.74325 242.71 4.19561 242.71 5.71V277.09C242.71 278.604 242.108 280.057 241.038 281.128C239.967 282.198 238.514 282.8 237 282.8V282.8ZM43.91 0.200001C42.4636 0.20265 41.0774 0.779065 40.0557 1.80273C39.0339 2.82639 38.46 4.21365 38.46 5.66V277.09C38.46 278.536 39.0339 279.924 40.0557 280.947C41.0774 281.971 42.4636 282.547 43.91 282.55H237C238.447 282.547 239.835 281.971 240.858 280.948C241.881 279.924 242.457 278.537 242.46 277.09V5.66C242.457 4.21273 241.881 2.82549 240.858 1.80212C239.835 0.77874 238.447 0.202644 237 0.200001H43.91Z" fill="#EBEBEB"/>
<path d="M453.31 282.8H260.21C258.696 282.797 257.246 282.195 256.175 281.125C255.105 280.054 254.503 278.604 254.5 277.09V5.66C254.516 4.15511 255.124 2.71708 256.193 1.65759C257.262 0.598109 258.705 0.00254829 260.21 0H453.31C454.812 0.0052045 456.252 0.602249 457.317 1.66173C458.382 2.72121 458.987 4.15775 459 5.66V277.09C459 278.601 458.401 280.05 457.335 281.121C456.268 282.191 454.821 282.795 453.31 282.8V282.8ZM260.21 0.200001C258.763 0.202644 257.375 0.77874 256.352 1.80212C255.329 2.82549 254.753 4.21273 254.75 5.66V277.09C254.753 278.537 255.329 279.924 256.352 280.948C257.375 281.971 258.763 282.547 260.21 282.55H453.31C454.757 282.547 456.145 281.971 457.168 280.948C458.191 279.924 458.767 278.537 458.77 277.09V5.66C458.767 4.21273 458.191 2.82549 457.168 1.80212C456.145 0.77874 454.757 0.202644 453.31 0.200001H260.21Z" fill="#EBEBEB"/>
<path d="M316.54 227.45H436.69C436.689 229.573 435.87 231.613 434.402 233.146C432.934 234.68 430.931 235.587 428.81 235.68C415.9 236.27 396.03 238.31 389.74 245.45C377.99 258.77 379.13 305.55 393.2 316.38C397.6 319.78 410.46 326.52 410.46 326.52H342.77C342.77 326.52 354.77 319.64 358.96 316.38C372.96 305.46 373.35 258.71 361.55 245.45C355.5 238.65 336.88 236.45 324.39 235.76C322.267 235.642 320.269 234.715 318.809 233.169C317.349 231.623 316.537 229.577 316.54 227.45Z" fill="#F5F5F5"/>
<path d="M421.8 236.12C409.6 237.12 394.98 239.51 389.74 245.45C388.029 247.502 386.677 249.828 385.74 252.33H365.59C364.641 249.834 363.289 247.51 361.59 245.45C356.33 239.54 341.59 237.11 329.59 236.12H421.8Z" fill="#E6E6E6"/>
<path d="M367.72 227.51L369.36 208.84H345.67L344.04 227.51H367.72Z" fill="#EBEBEB"/>
<path d="M367.72 227.51L369.36 208.84H370.63L369 227.51H367.72Z" fill="#E0E0E0"/>
<path d="M365.47 225.61L366.77 210.74H347.92L346.62 225.61H365.47Z" fill="#F0F0F0"/>
<path d="M364.03 224.38L365.11 211.97H349.37L348.28 224.38H364.03Z" fill="#FAFAFA"/>
<path d="M375.4 227.45H399.19L396.55 197.28H372.76L375.4 227.45Z" fill="#E6E6E6"/>
<path d="M375.4 227.45H374.27L371.63 197.28H372.76L375.4 227.45Z" fill="#E0E0E0"/>
<path d="M377.56 224.38H396.5L394.4 200.36H375.46L377.56 224.38Z" fill="#F0F0F0"/>
<path d="M378.94 222.4H394.77L393.01 202.34H377.19L378.94 222.4Z" fill="#FAFAFA"/>
<path d="M386.94 211.36C386.684 211.617 386.381 211.821 386.046 211.96C385.711 212.099 385.352 212.171 384.99 212.171C384.628 212.171 384.269 212.099 383.934 211.96C383.599 211.821 383.296 211.617 383.04 211.36C382.526 210.843 382.238 210.144 382.238 209.415C382.238 208.686 382.526 207.987 383.04 207.47V207.47C383.559 206.956 384.26 206.667 384.99 206.667C385.72 206.667 386.421 206.956 386.94 207.47V207.47C387.454 207.987 387.742 208.686 387.742 209.415C387.742 210.144 387.454 210.843 386.94 211.36V211.36Z" fill="#EBEBEB"/>
<path d="M385.77 214.74C385.956 214.551 386.178 214.401 386.423 214.299C386.667 214.196 386.93 214.143 387.195 214.143C387.46 214.143 387.723 214.196 387.967 214.299C388.212 214.401 388.434 214.551 388.62 214.74C388.909 215.019 389.108 215.378 389.19 215.771C389.272 216.164 389.234 216.572 389.081 216.943C388.928 217.314 388.666 217.631 388.331 217.851C387.996 218.072 387.601 218.186 387.2 218.18V218.18C386.798 218.189 386.402 218.076 386.065 217.856C385.728 217.636 385.465 217.32 385.311 216.948C385.156 216.577 385.117 216.167 385.199 215.773C385.281 215.379 385.48 215.019 385.77 214.74V214.74Z" fill="#F0F0F0"/>
<path d="M81.72 193.06H193.91L193.91 68.98L81.72 68.98L81.72 193.06Z" fill="#E0E0E0"/>
<path d="M78.14 193.06L194.5 193.06L194.5 68.98L78.14 68.98L78.14 193.06Z" fill="#F0F0F0"/>
<path d="M83.07 187.35H189.77V72.93L83.07 72.93L83.07 187.35Z" fill="white"/>
<path d="M83.06 187.35H86.15L86.15 72.93H83.06L83.06 187.35Z" fill="#E0E0E0"/>
<path d="M85.82 155.21V158.3H190.04V155.21H85.82Z" fill="#E0E0E0"/>
<path d="M83.06 155.21H191.42V150.03H83.06V155.21Z" fill="#F0F0F0"/>
<path d="M378.39 90.22C378.39 90.22 379.39 83.62 374.58 79.39C369.77 75.16 370.19 72.64 371.58 72.31C372.97 71.98 374.22 76.22 376.34 77.38C376.34 77.38 376.41 71.38 374.26 69.13C372.11 66.88 370.98 61.19 373.03 61.13C375.08 61.07 375.28 64.53 375.71 67.01C376.14 69.49 378.41 73.01 378.41 73.01C378.41 73.01 378.85 67.61 380.24 65.39C381.63 63.17 377.93 58.09 379.36 55.87C380.79 53.65 383.36 57.87 383.11 62.64C382.86 67.41 379.73 72.48 380.47 77.45C380.47 77.45 381.87 73.96 383.12 73.64C384.37 73.32 385.65 71.02 386.49 70.16C387.33 69.3 388.4 72.27 386.49 75.02C384.58 77.77 379.73 85.13 380.49 91.07L378.39 90.22Z" fill="#E6E6E6"/>
<path d="M375.51 87.22L373.93 97.11C373.81 97.8318 373.85 98.5712 374.047 99.276C374.244 99.9807 374.593 100.634 375.07 101.189C375.546 101.744 376.139 102.187 376.806 102.488C377.473 102.789 378.198 102.94 378.93 102.93H380.61C381.342 102.94 382.067 102.789 382.734 102.488C383.401 102.187 383.994 101.744 384.47 101.189C384.947 100.634 385.296 99.9807 385.493 99.276C385.69 98.5712 385.73 97.8318 385.61 97.11L384 87.22H375.51Z" fill="#F5F5F5"/>
<path d="M399.34 99.28H287.94V105H399.34V99.28Z" fill="#E6E6E6"/>
<path d="M297.98 78.18H293.07V99.28H297.98V78.18Z" fill="#F0F0F0"/>
<path d="M321.71 78.18H316.8V99.28H321.71V78.18Z" fill="#F0F0F0"/>
<path d="M348.655 77.6438L343.816 78.4779L347.401 99.2712L352.239 98.4372L348.655 77.6438Z" fill="#F0F0F0"/>
<path d="M304.06 80.96H299.15V99.28H304.06V80.96Z" fill="#F0F0F0"/>
<path d="M315.34 80.96H310.43V99.28H315.34V80.96Z" fill="#F0F0F0"/>
<path d="M343.82 80.96H338.91V99.28H343.82V80.96Z" fill="#F0F0F0"/>
<path d="M328.155 80.312L323.362 81.3772L327.336 99.2609L332.129 98.1957L328.155 80.312Z" fill="#F0F0F0"/>
<path d="M308.3 77.13H305.85V99.28H308.3V77.13Z" fill="#F0F0F0"/>
<path d="M337.49 77.13H335.04V99.28H337.49V77.13Z" fill="#F0F0F0"/>
<path d="M287.95 147.73H399.35V142.01H287.95V147.73Z" fill="#E6E6E6"/>
<path d="M389.31 142.01H394.22V120.91H389.31V142.01Z" fill="#F0F0F0"/>
<path d="M365.58 142.01H370.49V120.91H365.58V142.01Z" fill="#F0F0F0"/>
<path d="M335.063 141.156L339.902 141.99L343.486 121.197L338.647 120.363L335.063 141.156Z" fill="#F0F0F0"/>
<path d="M383.23 142.01H388.14V123.69H383.23V142.01Z" fill="#F0F0F0"/>
<path d="M371.95 142.01H376.86V123.69H371.95V142.01Z" fill="#F0F0F0"/>
<path d="M343.47 142.01H348.38V123.69H343.47V142.01Z" fill="#F0F0F0"/>
<path d="M355.172 140.922L359.965 141.988L363.939 124.104L359.146 123.039L355.172 140.922Z" fill="#F0F0F0"/>
<path d="M378.99 142.01H381.44V119.86H378.99V142.01Z" fill="#F0F0F0"/>
<path d="M349.8 142.01H352.25V119.86H349.8V142.01Z" fill="#F0F0F0"/>
<path d="M298.64 141.82H322.55V125.31H298.64V141.82Z" fill="#F5F5F5"/>
<path d="M250 372.56C357.082 372.56 443.89 367.492 443.89 361.24C443.89 354.988 357.082 349.92 250 349.92C142.918 349.92 56.11 354.988 56.11 361.24C56.11 367.492 142.918 372.56 250 372.56Z" fill="#F5F5F5"/>
<path d="M332.47 336.23C332.47 336.23 327.47 325.43 333.17 314.77C338.87 304.11 340.47 301.61 336.87 299.43C333.27 297.25 331.6 308 331.6 308C329.809 303.164 329.623 297.88 331.07 292.93C333.58 285.22 335.16 272.67 331.73 271.32C328.3 269.97 331.08 286.98 328.1 292.78C326.583 288.711 325.605 284.462 325.19 280.14C324.78 273.95 325.42 264.06 322.71 261.53C320 259 318.27 260.74 320.93 274.41C322.529 282.571 323.412 290.856 323.57 299.17C323.57 299.17 317.7 281.25 313.75 280.73C309.8 280.21 309.81 286.01 313.19 291.04C316.57 296.07 323.08 305.09 324.14 309.73C324.14 309.73 317.69 296.25 311.89 300.38C306.09 304.51 316.94 312.66 321.78 315.6C326.62 318.54 329.98 336.99 329.98 336.99L332.47 336.23Z" fill="#9440FF"/>
<path opacity="0.2" d="M332.47 336.23C332.47 336.23 327.47 325.43 333.17 314.77C338.87 304.11 340.47 301.61 336.87 299.43C333.27 297.25 331.6 308 331.6 308C329.809 303.164 329.623 297.88 331.07 292.93C333.58 285.22 335.16 272.67 331.73 271.32C328.3 269.97 331.08 286.98 328.1 292.78C326.583 288.711 325.605 284.462 325.19 280.14C324.78 273.95 325.42 264.06 322.71 261.53C320 259 318.27 260.74 320.93 274.41C322.529 282.571 323.412 290.856 323.57 299.17C323.57 299.17 317.7 281.25 313.75 280.73C309.8 280.21 309.81 286.01 313.19 291.04C316.57 296.07 323.08 305.09 324.14 309.73C324.14 309.73 317.69 296.25 311.89 300.38C306.09 304.51 316.94 312.66 321.78 315.6C326.62 318.54 329.98 336.99 329.98 336.99L332.47 336.23Z" fill="black"/>
<path d="M328.56 340.66C328.56 340.66 333.38 329.78 327.56 319.22C321.74 308.66 320.1 306.16 323.68 303.93C327.26 301.7 329.04 312.37 329.04 312.37C330.774 307.512 330.897 302.224 329.39 297.29C326.79 289.63 325.06 277.1 328.48 275.7C331.9 274.3 329.32 291.35 332.36 297.1C333.832 293.009 334.76 288.743 335.12 284.41C335.46 278.22 334.7 268.34 337.38 265.77C340.06 263.2 341.81 264.92 339.31 278.62C337.807 286.802 337.024 295.101 336.97 303.42C336.97 303.42 342.63 285.42 346.57 284.84C350.51 284.26 350.57 290.06 347.25 295.14C343.93 300.22 337.54 309.34 336.52 313.99C336.52 313.99 342.81 300.41 348.66 304.46C354.51 308.51 343.76 316.81 338.96 319.83C334.16 322.85 331.02 341.34 331.02 341.34L328.56 340.66Z" fill="#9440FF"/>
<path d="M350.8 332.91H310.96L314.19 361.42H347.58L350.8 332.91Z" fill="#263238"/>
<path opacity="0.2" d="M429.05 49.4H218.49C217.12 49.4 216.01 50.5103 216.01 51.88V238.9C216.01 240.27 217.12 241.38 218.49 241.38H429.05C430.42 241.38 431.53 240.27 431.53 238.9V51.88C431.53 50.5103 430.42 49.4 429.05 49.4Z" fill="black"/>
<path d="M420.9 45.85H210.34C208.97 45.85 207.86 46.9603 207.86 48.33V235.35C207.86 236.72 208.97 237.83 210.34 237.83H420.9C422.27 237.83 423.38 236.72 423.38 235.35V48.33C423.38 46.9603 422.27 45.85 420.9 45.85Z" fill="#9440FF"/>
<path opacity="0.6" d="M207.86 63V235.36C207.809 235.952 207.988 236.54 208.361 237.002C208.734 237.465 209.271 237.765 209.86 237.84H421.32C421.92 237.779 422.472 237.485 422.857 237.021C423.243 236.557 423.43 235.961 423.38 235.36V63H207.86Z" fill="white"/>
<path d="M420.82 73.11H210.41V225.38H420.82V73.11Z" fill="white"/>
<path opacity="0.6" d="M416.34 57.71C418.085 57.71 419.5 56.0042 419.5 53.9C419.5 51.7958 418.085 50.09 416.34 50.09C414.595 50.09 413.18 51.7958 413.18 53.9C413.18 56.0042 414.595 57.71 416.34 57.71Z" fill="white"/>
<path opacity="0.6" d="M405.99 57.71C407.735 57.71 409.15 56.0042 409.15 53.9C409.15 51.7958 407.735 50.09 405.99 50.09C404.245 50.09 402.83 51.7958 402.83 53.9C402.83 56.0042 404.245 57.71 405.99 57.71Z" fill="white"/>
<path opacity="0.6" d="M398.79 53.9C398.79 56 397.38 57.7 395.63 57.7C393.88 57.7 392.48 56 392.48 53.9C392.48 51.8 393.89 50.09 395.63 50.09C397.37 50.09 398.79 51.79 398.79 53.9Z" fill="white"/>
<path d="M255.24 90.89V130.16L245.14 142.34H222.77V90.89H255.24Z" fill="#9440FF"/>
<path opacity="0.7" d="M255.24 90.89V130.16L245.14 142.34H222.77V90.89H255.24Z" fill="white"/>
<path opacity="0.3" d="M255.24 130.16L245.14 142.34V130.16H255.24Z" fill="#9440FF"/>
<path opacity="0.3" d="M250.21 98.31H227.81V99.78H250.21V98.31Z" fill="#9440FF"/>
<path opacity="0.3" d="M250.21 103.89H227.81V105.36H250.21V103.89Z" fill="#9440FF"/>
<path opacity="0.3" d="M250.21 109.48H227.81V110.96H250.21V109.48Z" fill="#9440FF"/>
<path opacity="0.3" d="M250.21 115.07H227.81V116.54H250.21V115.07Z" fill="#9440FF"/>
<path opacity="0.3" d="M244.42 120.66H227.81V122.14H244.42V120.66Z" fill="#9440FF"/>
<path d="M306.74 90.89V130.16L296.64 142.34H274.27V90.89H306.74Z" fill="#9440FF"/>
<path opacity="0.7" d="M306.74 90.89V130.16L296.64 142.34H274.27V90.89H306.74Z" fill="white"/>
<path opacity="0.3" d="M306.74 130.16L296.64 142.34V130.16H306.74Z" fill="#9440FF"/>
<path opacity="0.3" d="M301.7 98.31H279.3V99.78H301.7V98.31Z" fill="#9440FF"/>
<path opacity="0.3" d="M301.7 103.89H279.3V105.36H301.7V103.89Z" fill="#9440FF"/>
<path opacity="0.3" d="M301.7 109.48H279.3V110.96H301.7V109.48Z" fill="#9440FF"/>
<path opacity="0.3" d="M301.7 115.07H279.3V116.54H301.7V115.07Z" fill="#9440FF"/>
<path opacity="0.3" d="M295.91 120.66H279.3V122.14H295.91V120.66Z" fill="#9440FF"/>
<path d="M358.24 90.89V130.16L348.14 142.34H325.77V90.89H358.24Z" fill="#9440FF"/>
<path opacity="0.7" d="M358.24 90.89V130.16L348.14 142.34H325.77V90.89H358.24Z" fill="white"/>
<path opacity="0.3" d="M358.24 130.16L348.14 142.34V130.16H358.24Z" fill="#9440FF"/>
<path opacity="0.3" d="M353.2 98.31H330.8V99.78H353.2V98.31Z" fill="#9440FF"/>
<path opacity="0.3" d="M353.2 103.89H330.8V105.36H353.2V103.89Z" fill="#9440FF"/>
<path opacity="0.3" d="M353.2 109.48H330.8V110.96H353.2V109.48Z" fill="#9440FF"/>
<path opacity="0.3" d="M353.2 115.07H330.8V116.54H353.2V115.07Z" fill="#9440FF"/>
<path opacity="0.3" d="M347.41 120.66H330.8V122.14H347.41V120.66Z" fill="#9440FF"/>
<path d="M409.74 90.89V130.16L399.63 142.34H377.27V90.89H409.74Z" fill="#9440FF"/>
<path opacity="0.7" d="M409.74 90.89V130.16L399.63 142.34H377.27V90.89H409.74Z" fill="white"/>
<path opacity="0.3" d="M409.74 130.16L399.63 142.34V130.16H409.74Z" fill="#9440FF"/>
<path opacity="0.3" d="M404.7 98.31H382.3V99.78H404.7V98.31Z" fill="#9440FF"/>
<path opacity="0.3" d="M404.7 103.89H382.3V105.36H404.7V103.89Z" fill="#9440FF"/>
<path opacity="0.3" d="M404.7 109.48H382.3V110.96H404.7V109.48Z" fill="#9440FF"/>
<path opacity="0.3" d="M404.7 115.07H382.3V116.54H404.7V115.07Z" fill="#9440FF"/>
<path opacity="0.3" d="M398.91 120.66H382.3V122.14H398.91V120.66Z" fill="#9440FF"/>
<path d="M255.24 158.89V198.16L245.14 210.34H222.77V158.89H255.24Z" fill="#9440FF"/>
<path opacity="0.7" d="M255.24 158.89V198.16L245.14 210.34H222.77V158.89H255.24Z" fill="white"/>
<path opacity="0.3" d="M255.24 198.16L245.14 210.34V198.16H255.24Z" fill="#9440FF"/>
<path opacity="0.3" d="M250.21 166.31H227.81V167.78H250.21V166.31Z" fill="#9440FF"/>
<path opacity="0.3" d="M250.21 171.89H227.81V173.36H250.21V171.89Z" fill="#9440FF"/>
<path opacity="0.3" d="M250.21 177.48H227.81V178.96H250.21V177.48Z" fill="#9440FF"/>
<path opacity="0.3" d="M250.21 183.07H227.81V184.55H250.21V183.07Z" fill="#9440FF"/>
<path opacity="0.3" d="M244.42 188.66H227.81V190.13H244.42V188.66Z" fill="#9440FF"/>
<path d="M306.74 158.89V198.16L296.64 210.34H274.27V158.89H306.74Z" fill="#9440FF"/>
<path opacity="0.7" d="M306.74 158.89V198.16L296.64 210.34H274.27V158.89H306.74Z" fill="white"/>
<path opacity="0.3" d="M306.74 198.16L296.64 210.34V198.16H306.74Z" fill="#9440FF"/>
<path opacity="0.3" d="M301.7 166.31H279.3V167.78H301.7V166.31Z" fill="#9440FF"/>
<path opacity="0.3" d="M301.7 171.89H279.3V173.36H301.7V171.89Z" fill="#9440FF"/>
<path opacity="0.3" d="M301.7 177.48H279.3V178.96H301.7V177.48Z" fill="#9440FF"/>
<path opacity="0.3" d="M301.7 183.07H279.3V184.55H301.7V183.07Z" fill="#9440FF"/>
<path opacity="0.3" d="M295.91 188.66H279.3V190.13H295.91V188.66Z" fill="#9440FF"/>
<path d="M358.24 158.89V198.16L348.14 210.34H325.77V158.89H358.24Z" fill="#9440FF"/>
<path opacity="0.7" d="M358.24 158.89V198.16L348.14 210.34H325.77V158.89H358.24Z" fill="white"/>
<path opacity="0.3" d="M358.24 198.16L348.14 210.34V198.16H358.24Z" fill="#9440FF"/>
<path opacity="0.3" d="M353.2 166.31H330.8V167.78H353.2V166.31Z" fill="#9440FF"/>
<path opacity="0.3" d="M353.2 171.89H330.8V173.36H353.2V171.89Z" fill="#9440FF"/>
<path opacity="0.3" d="M353.2 177.48H330.8V178.96H353.2V177.48Z" fill="#9440FF"/>
<path opacity="0.3" d="M353.2 183.07H330.8V184.55H353.2V183.07Z" fill="#9440FF"/>
<path opacity="0.3" d="M347.41 188.66H330.8V190.13H347.41V188.66Z" fill="#9440FF"/>
<path d="M409.74 158.89V198.16L399.63 210.34H377.27V158.89H409.74Z" fill="#9440FF"/>
<path opacity="0.7" d="M409.74 158.89V198.16L399.63 210.34H377.27V158.89H409.74Z" fill="white"/>
<path opacity="0.3" d="M409.74 198.16L399.63 210.34V198.16H409.74Z" fill="#9440FF"/>
<path opacity="0.3" d="M404.7 166.31H382.3V167.78H404.7V166.31Z" fill="#9440FF"/>
<path opacity="0.3" d="M404.7 171.89H382.3V173.36H404.7V171.89Z" fill="#9440FF"/>
<path opacity="0.3" d="M404.7 177.48H382.3V178.96H404.7V177.48Z" fill="#9440FF"/>
<path opacity="0.3" d="M404.7 183.07H382.3V184.55H404.7V183.07Z" fill="#9440FF"/>
<path opacity="0.3" d="M398.91 188.66H382.3V190.13H398.91V188.66Z" fill="#9440FF"/>
<path opacity="0.1" d="M329.96 126.35H278.13C275.728 126.35 273.78 128.298 273.78 130.7V169.54C273.78 171.942 275.728 173.89 278.13 173.89H329.96C332.362 173.89 334.31 171.942 334.31 169.54V130.7C334.31 128.298 332.362 126.35 329.96 126.35Z" fill="black"/>
<g opacity="0.1">
<path opacity="0.1" d="M326.25 124.14H320.25V117.65C320.25 113.55 318.621 109.617 315.722 106.718C312.823 103.819 308.89 102.19 304.79 102.19C300.69 102.19 296.757 103.819 293.858 106.718C290.959 109.617 289.33 113.55 289.33 117.65V124.14H283.33V117.65C283.33 111.958 285.591 106.5 289.615 102.475C293.64 98.451 299.098 96.19 304.79 96.19C310.482 96.19 315.94 98.451 319.965 102.475C323.989 106.5 326.25 111.958 326.25 117.65V124.14Z" fill="black"/>
</g>
<path d="M304.96 124.35H253.13C250.728 124.35 248.78 126.298 248.78 128.7V167.54C248.78 169.942 250.728 171.89 253.13 171.89H304.96C307.362 171.89 309.31 169.942 309.31 167.54V128.7C309.31 126.298 307.362 124.35 304.96 124.35Z" fill="#263238"/>
<path opacity="0.2" d="M294.01 124.35H253.13C250.728 124.35 248.78 126.298 248.78 128.7V167.54C248.78 169.942 250.728 171.89 253.13 171.89H294.01C296.412 171.89 298.36 169.942 298.36 167.54V128.7C298.36 126.298 296.412 124.35 294.01 124.35Z" fill="white"/>
<path d="M276.61 142.19C276.61 138.91 274.61 136.25 272.15 136.25C269.69 136.25 267.7 138.91 267.7 142.19C267.641 143.271 267.867 144.349 268.357 145.314C268.847 146.28 269.583 147.099 270.49 147.69L269.66 160.09H274.66L273.84 147.69C274.742 147.095 275.473 146.275 275.959 145.31C276.445 144.345 276.669 143.269 276.61 142.19Z" fill="#263238"/>
<path d="M301.25 122.14H295.25V115.65C295.25 111.55 293.621 107.617 290.722 104.718C287.823 101.819 283.89 100.19 279.79 100.19C275.69 100.19 271.757 101.819 268.858 104.718C265.959 107.617 264.33 111.55 264.33 115.65V122.14H258.33V115.65C258.33 109.958 260.591 104.5 264.615 100.475C268.64 96.451 274.098 94.19 279.79 94.19C285.482 94.19 290.94 96.451 294.965 100.475C298.989 104.5 301.25 109.958 301.25 115.65V122.14Z" fill="#263238"/>
<g opacity="0.4">
<path opacity="0.4" d="M301.25 122.14H295.25V115.65C295.25 111.55 293.621 107.617 290.722 104.718C287.823 101.819 283.89 100.19 279.79 100.19C275.69 100.19 271.757 101.819 268.858 104.718C265.959 107.617 264.33 111.55 264.33 115.65V122.14H258.33V115.65C258.33 109.958 260.591 104.5 264.615 100.475C268.64 96.451 274.098 94.19 279.79 94.19C285.482 94.19 290.94 96.451 294.965 100.475C298.989 104.5 301.25 109.958 301.25 115.65V122.14Z" fill="white"/>
</g>
<path opacity="0.2" d="M301.25 115.65V122.14H297.18V114.91C297.18 112.335 296.673 109.786 295.687 107.407C294.701 105.028 293.257 102.867 291.436 101.047C289.615 99.227 287.453 97.7835 285.074 96.7991C282.695 95.8147 280.145 95.3087 277.57 95.31C273.635 95.2976 269.793 96.5027 266.57 98.76C269.735 96.2779 273.535 94.7362 277.535 94.3113C281.535 93.8863 285.574 94.5952 289.19 96.3568C292.806 98.1185 295.854 100.862 297.984 104.274C300.115 107.685 301.244 111.628 301.24 115.65H301.25Z" fill="white"/>
<path d="M216.46 230.63H192.22V229.7H197.69C198.058 229.697 198.413 229.565 198.694 229.327C198.975 229.09 199.165 228.762 199.23 228.4L201.68 213.82L202.16 210.95H210.46L217.89 228.47C217.991 228.706 218.032 228.964 218.009 229.22C217.986 229.475 217.899 229.721 217.758 229.936C217.616 230.15 217.423 230.325 217.196 230.447C216.97 230.568 216.717 230.631 216.46 230.63V230.63Z" fill="#9440FF"/>
<path opacity="0.4" d="M216.46 230.63H192.22V229.7H197.69C198.058 229.697 198.413 229.565 198.694 229.327C198.975 229.09 199.165 228.762 199.23 228.4L201.68 213.82L202.16 210.95H210.46L217.89 228.47C217.991 228.706 218.032 228.964 218.009 229.22C217.986 229.475 217.899 229.721 217.758 229.936C217.616 230.15 217.423 230.325 217.196 230.447C216.97 230.568 216.717 230.631 216.46 230.63V230.63Z" fill="white"/>
<path opacity="0.2" d="M216.49 229.7H197.69C198.058 229.697 198.413 229.565 198.694 229.327C198.975 229.09 199.165 228.762 199.23 228.4L201.68 213.82H210.38L217 228.93C217.037 229.014 217.052 229.106 217.044 229.198C217.036 229.289 217.005 229.377 216.954 229.454C216.904 229.53 216.835 229.593 216.754 229.636C216.672 229.679 216.582 229.701 216.49 229.7V229.7Z" fill="black"/>
<path d="M229.49 216.32H181C180.89 216.325 180.78 216.304 180.679 216.259C180.578 216.214 180.49 216.146 180.42 216.06C180.35 215.975 180.301 215.874 180.277 215.767C180.252 215.659 180.253 215.547 180.28 215.44L187.18 179C187.231 178.766 187.355 178.554 187.535 178.395C187.715 178.237 187.941 178.14 188.18 178.12H236.66C236.77 178.115 236.88 178.135 236.98 178.181C237.081 178.226 237.169 178.294 237.239 178.38C237.308 178.465 237.356 178.566 237.379 178.674C237.401 178.782 237.398 178.894 237.37 179L230.49 215.43C230.441 215.666 230.318 215.88 230.138 216.041C229.957 216.201 229.73 216.299 229.49 216.32Z" fill="#9440FF"/>
<path opacity="0.4" d="M229.49 216.32H181C180.89 216.325 180.78 216.304 180.679 216.259C180.578 216.214 180.49 216.146 180.42 216.06C180.35 215.975 180.301 215.874 180.277 215.767C180.252 215.659 180.253 215.547 180.28 215.44L187.18 179C187.231 178.766 187.355 178.554 187.535 178.395C187.715 178.237 187.941 178.14 188.18 178.12H236.66C236.77 178.115 236.88 178.135 236.98 178.181C237.081 178.226 237.169 178.294 237.239 178.38C237.308 178.465 237.356 178.566 237.379 178.674C237.401 178.782 237.398 178.894 237.37 179L230.49 215.43C230.441 215.666 230.318 215.88 230.138 216.041C229.957 216.201 229.73 216.299 229.49 216.32Z" fill="white"/>
<path d="M228.49 216.32H180C179.89 216.325 179.78 216.304 179.679 216.259C179.578 216.214 179.49 216.146 179.42 216.06C179.35 215.975 179.301 215.874 179.277 215.767C179.252 215.659 179.253 215.547 179.28 215.44L186.18 179C186.231 178.766 186.355 178.554 186.535 178.395C186.715 178.237 186.941 178.14 187.18 178.12H235.66C235.77 178.115 235.88 178.135 235.98 178.181C236.081 178.226 236.169 178.294 236.239 178.38C236.308 178.465 236.356 178.566 236.379 178.674C236.401 178.782 236.398 178.894 236.37 179L229.49 215.43C229.441 215.666 229.318 215.88 229.138 216.041C228.957 216.201 228.73 216.299 228.49 216.32Z" fill="#263238"/>
<path d="M227.85 214.08H181.49L187.87 180.37H234.22L227.85 214.08Z" fill="#9440FF"/>
<path d="M147.05 230.63V229.49L165.71 225.72H202.22C202.87 225.72 203.493 225.978 203.952 226.438C204.412 226.897 204.67 227.52 204.67 228.17V228.17C204.67 228.821 204.412 229.445 203.953 229.906C203.494 230.367 202.871 230.627 202.22 230.63H147.05Z" fill="#9440FF"/>
<path opacity="0.4" d="M204.67 228.18C204.671 228.828 204.416 229.45 203.96 229.91C203.497 230.369 202.872 230.628 202.22 230.63H147.05V229.5L165.72 225.72H202.22C202.543 225.72 202.862 225.784 203.16 225.907C203.458 226.031 203.728 226.213 203.956 226.441C204.184 226.67 204.364 226.941 204.486 227.239C204.609 227.538 204.671 227.857 204.67 228.18Z" fill="white"/>
<path opacity="0.4" d="M204.67 228.18C204.671 228.828 204.416 229.45 203.96 229.91C203.497 230.369 202.872 230.628 202.22 230.63H180.05V229.5L198.72 225.72H202.22C202.543 225.72 202.862 225.784 203.16 225.907C203.458 226.031 203.728 226.213 203.956 226.441C204.184 226.67 204.364 226.941 204.486 227.239C204.609 227.538 204.671 227.857 204.67 228.18Z" fill="white"/>
<path d="M218.01 361.42H223.01L231.98 236.48H225.35L218.01 361.42Z" fill="#263238"/>
<path opacity="0.1" d="M218.01 361.42H223.01L231.54 242.68L231.98 236.68H225.35L225 242.68L218.01 361.42Z" fill="white"/>
<path opacity="0.2" d="M225 242.38H231.54L231.98 236.68H225.35L225 242.38Z" fill="black"/>
<path d="M181.36 361.42H186.35L187.17 236.48H180.54L181.36 361.42Z" fill="#263238"/>
<path opacity="0.1" d="M180.54 236.68L180.67 256.84L181.35 361.42H186.35L187.03 256.84L187.16 236.68H180.54Z" fill="white"/>
<path opacity="0.2" d="M180.54 236.68L180.67 257.06H187.03L187.16 236.68H180.54Z" fill="black"/>
<path d="M128.33 361.42H133.32L142.3 236.48H135.67L128.33 361.42Z" fill="#263238"/>
<path opacity="0.1" d="M128.32 361.42H133.32L141.86 242.68L142.3 236.68H135.67L135.31 242.68L128.32 361.42Z" fill="white"/>
<path opacity="0.2" d="M135.31 242.38H141.86L142.3 236.68H135.67L135.31 242.38Z" fill="black"/>
<path d="M275.15 361.42H280.14L272.8 236.48H266.18L275.15 361.42Z" fill="#263238"/>
<path opacity="0.1" d="M266.18 236.68L266.62 242.68L275.15 361.42H280.14L273.16 242.68L272.8 236.68H266.18Z" fill="white"/>
<path opacity="0.2" d="M272.8 236.68H266.18L266.62 242.38H273.16L272.8 236.68Z" fill="black"/>
<path d="M275.89 239.6L132.58 239.6C132.296 239.6 132.015 239.544 131.753 239.436C131.491 239.327 131.253 239.168 131.053 238.967C130.852 238.767 130.693 238.529 130.584 238.267C130.476 238.005 130.42 237.724 130.42 237.44V233.34L278.05 233.34V237.44C278.05 237.724 277.994 238.005 277.886 238.267C277.777 238.529 277.618 238.767 277.417 238.967C277.217 239.168 276.979 239.327 276.717 239.436C276.455 239.544 276.174 239.6 275.89 239.6V239.6Z" fill="#9440FF"/>
<path opacity="0.4" d="M275.89 239.6L132.58 239.6C132.296 239.6 132.015 239.544 131.753 239.436C131.491 239.327 131.253 239.168 131.053 238.967C130.852 238.767 130.693 238.529 130.584 238.267C130.476 238.005 130.42 237.724 130.42 237.44V233.34L278.05 233.34V237.44C278.05 237.724 277.994 238.005 277.886 238.267C277.777 238.529 277.618 238.767 277.417 238.967C277.217 239.168 276.979 239.327 276.717 239.436C276.455 239.544 276.174 239.6 275.89 239.6V239.6Z" fill="white"/>
<path opacity="0.2" d="M130.41 236.47L278.05 236.47V233.34L130.41 233.34V236.47Z" fill="black"/>
<path d="M127.32 234.16H281.15C281.617 234.16 282.064 233.975 282.395 233.645C282.725 233.314 282.91 232.867 282.91 232.4V232.4C282.91 231.933 282.725 231.486 282.395 231.155C282.064 230.825 281.617 230.64 281.15 230.64H127.32C126.853 230.64 126.406 230.825 126.075 231.155C125.745 231.486 125.56 231.933 125.56 232.4C125.56 232.867 125.745 233.314 126.075 233.645C126.406 233.975 126.853 234.16 127.32 234.16V234.16Z" fill="#9440FF"/>
<path opacity="0.4" d="M127.32 234.16H281.15C281.617 234.16 282.064 233.975 282.395 233.645C282.725 233.314 282.91 232.867 282.91 232.4V232.4C282.91 231.933 282.725 231.486 282.395 231.155C282.064 230.825 281.617 230.64 281.15 230.64H127.32C126.853 230.64 126.406 230.825 126.075 231.155C125.745 231.486 125.56 231.933 125.56 232.4C125.56 232.867 125.745 233.314 126.075 233.645C126.406 233.975 126.853 234.16 127.32 234.16V234.16Z" fill="white"/>
<path opacity="0.3" d="M190.44 199.26C190.22 199.258 190.004 199.208 189.806 199.113C189.608 199.018 189.433 198.881 189.294 198.711C189.155 198.542 189.054 198.343 189 198.131C188.946 197.918 188.939 197.696 188.98 197.48L189.6 194.29C189.687 193.855 189.922 193.463 190.264 193.181C190.607 192.898 191.036 192.743 191.48 192.74H217.48C217.701 192.739 217.919 192.789 218.118 192.884C218.317 192.979 218.492 193.118 218.63 193.29C218.772 193.458 218.874 193.656 218.928 193.869C218.981 194.082 218.986 194.305 218.94 194.52L218.32 197.71C218.236 198.145 218.004 198.538 217.663 198.821C217.322 199.103 216.893 199.259 216.45 199.26H190.44Z" fill="white"/>
<path d="M216.45 198.76H190.45C190.302 198.762 190.155 198.732 190.021 198.671C189.886 198.61 189.766 198.52 189.671 198.407C189.575 198.294 189.506 198.161 189.467 198.018C189.429 197.875 189.423 197.726 189.45 197.58L190.08 194.38C190.141 194.059 190.312 193.769 190.564 193.561C190.816 193.352 191.133 193.239 191.46 193.24H217.46C217.608 193.238 217.755 193.268 217.889 193.329C218.024 193.39 218.144 193.48 218.239 193.593C218.335 193.706 218.404 193.839 218.443 193.982C218.481 194.125 218.487 194.274 218.46 194.42L217.84 197.62C217.777 197.942 217.604 198.232 217.35 198.44C217.097 198.648 216.778 198.761 216.45 198.76V198.76Z" fill="white"/>
<path d="M194.847 196.744C195.357 196.015 195.301 195.096 194.721 194.691C194.142 194.286 193.259 194.548 192.75 195.277C192.24 196.005 192.296 196.924 192.876 197.329C193.455 197.735 194.338 197.472 194.847 196.744Z" fill="#263238"/>
<path d="M199.23 196C199.159 196.4 198.957 196.764 198.657 197.037C198.357 197.31 197.975 197.477 197.57 197.51C197.391 197.504 197.215 197.457 197.057 197.373C196.899 197.288 196.763 197.168 196.659 197.021C196.556 196.875 196.487 196.707 196.46 196.529C196.432 196.352 196.446 196.171 196.5 196C196.573 195.601 196.775 195.237 197.075 194.965C197.375 194.692 197.756 194.525 198.16 194.49C198.34 194.493 198.517 194.539 198.676 194.623C198.835 194.708 198.972 194.828 199.076 194.975C199.18 195.122 199.248 195.291 199.275 195.469C199.302 195.647 199.286 195.829 199.23 196V196Z" fill="#263238"/>
<path d="M203.3 196C203.227 196.399 203.025 196.763 202.725 197.035C202.425 197.308 202.044 197.475 201.64 197.51C201.46 197.506 201.283 197.46 201.124 197.376C200.965 197.292 200.827 197.172 200.722 197.025C200.618 196.879 200.548 196.71 200.52 196.532C200.492 196.354 200.506 196.172 200.56 196C200.635 195.6 200.839 195.236 201.141 194.964C201.442 194.691 201.825 194.525 202.23 194.49C202.409 194.496 202.585 194.543 202.743 194.627C202.901 194.712 203.037 194.832 203.141 194.979C203.244 195.125 203.313 195.293 203.34 195.471C203.368 195.648 203.354 195.829 203.3 196V196Z" fill="#263238"/>
<path d="M207.05 196.736C207.559 196.008 207.503 195.089 206.924 194.684C206.344 194.278 205.462 194.541 204.952 195.269C204.442 195.998 204.499 196.917 205.078 197.322C205.657 197.727 206.54 197.465 207.05 196.736Z" fill="#263238"/>
<path d="M211.43 196C211.355 196.4 211.151 196.764 210.849 197.036C210.548 197.309 210.165 197.475 209.76 197.51C209.581 197.504 209.405 197.457 209.247 197.373C209.089 197.288 208.953 197.168 208.849 197.021C208.746 196.875 208.677 196.707 208.65 196.529C208.622 196.352 208.636 196.171 208.69 196C208.765 195.602 208.967 195.239 209.267 194.966C209.566 194.694 209.947 194.527 210.35 194.49C210.53 194.494 210.707 194.54 210.866 194.624C211.025 194.708 211.163 194.828 211.268 194.975C211.372 195.121 211.442 195.29 211.47 195.468C211.498 195.646 211.484 195.828 211.43 196V196Z" fill="#263238"/>
<path d="M215.174 196.753C215.683 196.024 215.627 195.105 215.048 194.7C214.468 194.294 213.586 194.557 213.076 195.285C212.566 196.014 212.623 196.933 213.202 197.338C213.781 197.743 214.664 197.481 215.174 196.753Z" fill="#263238"/>
<path opacity="0.3" d="M220.08 199.26C219.912 199.262 219.746 199.226 219.593 199.155C219.441 199.084 219.307 198.98 219.2 198.85C219.086 198.713 219.006 198.551 218.966 198.377C218.926 198.204 218.928 198.023 218.97 197.85L219.76 193.85C219.83 193.522 220.008 193.228 220.265 193.014C220.523 192.799 220.845 192.678 221.18 192.67H225.18C225.348 192.668 225.514 192.704 225.667 192.775C225.819 192.846 225.953 192.95 226.06 193.08C226.174 193.217 226.254 193.379 226.294 193.553C226.334 193.726 226.332 193.907 226.29 194.08L225.5 198.08C225.43 198.408 225.252 198.702 224.995 198.916C224.737 199.131 224.415 199.252 224.08 199.26H220.08Z" fill="white"/>
<path d="M220.08 198.76H224.08C224.295 198.749 224.5 198.669 224.666 198.532C224.831 198.395 224.949 198.209 225 198L225.79 194C225.815 193.906 225.818 193.808 225.798 193.713C225.778 193.619 225.737 193.53 225.676 193.454C225.616 193.378 225.539 193.317 225.451 193.277C225.363 193.236 225.267 193.217 225.17 193.22H221.17C220.951 193.23 220.741 193.312 220.573 193.453C220.405 193.594 220.288 193.786 220.24 194L219.45 198C219.428 198.093 219.428 198.19 219.45 198.283C219.472 198.376 219.516 198.463 219.577 198.536C219.638 198.61 219.715 198.668 219.802 198.707C219.889 198.746 219.985 198.764 220.08 198.76V198.76Z" fill="#263238"/>
<path d="M222.11 197.75C222.08 197.751 222.05 197.746 222.022 197.733C221.994 197.721 221.97 197.703 221.95 197.68C221.914 197.622 221.902 197.553 221.915 197.486C221.927 197.42 221.965 197.36 222.02 197.32L223.61 196L222.55 194.68C222.512 194.623 222.498 194.553 222.511 194.486C222.524 194.418 222.563 194.359 222.62 194.32C222.668 194.276 222.73 194.252 222.795 194.252C222.86 194.252 222.922 194.276 222.97 194.32L224.17 195.82C224.208 195.877 224.222 195.947 224.209 196.014C224.196 196.082 224.157 196.141 224.1 196.18L222.31 197.68C222.254 197.726 222.183 197.751 222.11 197.75V197.75Z" fill="#9440FF"/>
<path d="M223.91 196.25H221.21C221.179 196.251 221.148 196.245 221.12 196.232C221.092 196.219 221.067 196.199 221.047 196.175C221.028 196.151 221.015 196.122 221.008 196.092C221.002 196.062 221.002 196.03 221.01 196C221.025 195.931 221.063 195.869 221.117 195.824C221.172 195.779 221.239 195.753 221.31 195.75H224C224.031 195.749 224.062 195.755 224.09 195.768C224.118 195.781 224.143 195.801 224.163 195.825C224.182 195.849 224.195 195.878 224.202 195.908C224.208 195.938 224.208 195.97 224.2 196C224.185 196.067 224.149 196.128 224.097 196.173C224.044 196.218 223.979 196.245 223.91 196.25V196.25Z" fill="#9440FF"/>
<path d="M136.27 135.2H157.83C160.105 135.2 161.95 133.355 161.95 131.08V109.52C161.95 107.245 160.105 105.4 157.83 105.4H136.27C133.995 105.4 132.15 107.245 132.15 109.52V131.08C132.15 133.355 133.995 135.2 136.27 135.2Z" fill="#9440FF"/>
<path d="M144.72 134.08L147.05 144.1L149.38 134.08H144.72Z" fill="#9440FF"/>
<path opacity="0.3" d="M146.79 129.23C144.254 127.718 142.137 125.596 140.631 123.056C139.125 120.517 138.279 117.64 138.17 114.69V114.37L147.04 110.59L155.9 114.37V114.69C155.797 117.641 154.955 120.518 153.451 123.059C151.946 125.599 149.828 127.721 147.29 129.23L147.03 129.39L146.79 129.23Z" fill="white"/>
<path opacity="0.6" d="M147.05 111.14L155.42 114.7C155.329 117.567 154.513 120.364 153.05 122.831C151.586 125.299 149.522 127.355 147.05 128.81V111.14Z" fill="white"/>
<path opacity="0.4" d="M147.05 111.14L138.67 114.7C138.762 117.568 139.579 120.366 141.045 122.833C142.51 125.3 144.576 127.356 147.05 128.81V111.14Z" fill="white"/>
<path d="M139 224.11L146 225.16C147.589 224.655 149.224 224.303 150.88 224.11C152.677 223.962 154.483 223.962 156.28 224.11C156.28 224.11 159.45 225.3 159.45 228.33C159.45 228.33 152.06 230.33 149.23 229.12L139 228.33V224.11Z" fill="#E4897B"/>
<path opacity="0.2" d="M139 224.11L146 225.16C147.589 224.655 149.224 224.303 150.88 224.11C152.677 223.962 154.483 223.962 156.28 224.11C156.28 224.11 159.45 225.3 159.45 228.33C159.45 228.33 152.06 230.33 149.23 229.12L139 228.33V224.11Z" fill="black"/>
<path d="M156.34 176.84C156.449 178.279 156.731 179.699 157.18 181.07C156.813 181.296 156.391 181.415 155.96 181.415C155.529 181.415 155.107 181.296 154.74 181.07L156.34 176.84Z" fill="#AA473D"/>
<path d="M159.07 174.84C158.8 175.49 158.32 175.91 157.99 175.77C157.66 175.63 157.63 175.01 157.89 174.36C158.15 173.71 158.64 173.3 158.97 173.43C159.3 173.56 159.33 174.2 159.07 174.84Z" fill="#263238"/>
<path d="M160.71 172.6C160.651 172.618 160.589 172.618 160.53 172.6C159.998 172.288 159.404 172.098 158.789 172.046C158.175 171.995 157.556 172.081 156.98 172.3C156.894 172.344 156.794 172.351 156.702 172.321C156.61 172.291 156.534 172.226 156.49 172.14C156.446 172.054 156.439 171.954 156.469 171.862C156.499 171.77 156.564 171.694 156.65 171.65C157.335 171.371 158.076 171.255 158.814 171.313C159.552 171.37 160.266 171.598 160.9 171.98C160.941 172.005 160.977 172.037 161.005 172.076C161.033 172.114 161.054 172.158 161.065 172.205C161.076 172.251 161.078 172.3 161.07 172.347C161.063 172.394 161.045 172.439 161.02 172.48C160.983 172.525 160.935 172.559 160.881 172.58C160.826 172.601 160.768 172.608 160.71 172.6V172.6Z" fill="#263238"/>
<path d="M154.39 182.28C154.16 182.56 153.93 182.83 153.68 183.08C152.28 184.535 150.469 185.529 148.49 185.93C147.989 186.032 147.481 186.098 146.97 186.13C145.625 186.214 144.278 185.997 143.028 185.496C141.777 184.994 140.654 184.22 139.74 183.23C138.915 182.334 138.282 181.279 137.88 180.13C136.09 175.33 137.88 171.55 140.47 164.9C141.046 163.341 142.01 161.955 143.272 160.873C144.533 159.791 146.05 159.05 147.678 158.718C149.307 158.387 150.993 158.476 152.577 158.979C154.161 159.482 155.591 160.38 156.73 161.59C161.91 167.05 158.43 177.08 154.39 182.28Z" fill="#E4897B"/>
<path opacity="0.2" d="M148.49 185.93C147.989 186.032 147.481 186.098 146.97 186.13C145.625 186.214 144.278 185.997 143.028 185.496C141.777 184.994 140.654 184.22 139.74 183.23C140.382 182.584 141.105 182.023 141.89 181.56C144.465 182.351 146.756 183.869 148.49 185.93V185.93Z" fill="black"/>
<path d="M126.93 186.18C127.59 190.86 137.83 192.61 137.83 192.61C137.83 192.61 142.83 194.91 143.09 192.91C141 190.49 140.77 188.38 141.49 186.53C141.968 185.401 142.668 184.381 143.55 183.53C144.02 183.042 144.517 182.581 145.04 182.15L141.91 169.33C139.66 174.23 132 185.48 126.93 186.18Z" fill="#E4897B"/>
<path d="M156.15 158C156.15 158 158.34 157.73 160.02 161.81C161.43 165.24 158.1 165.99 158.25 169.64C158.4 173.29 155.05 175.32 155.05 175.32C155.05 175.32 152.25 177.74 149.86 176.43C149.86 176.43 146.74 177.96 145.92 180.63C145.1 183.3 140.27 178.48 135.92 179.21C135.92 179.21 132.98 176.46 133.2 169.78C133.366 166.879 134.079 164.036 135.3 161.4C135.877 160.004 136.725 158.737 137.797 157.673C138.868 156.608 140.141 155.768 141.54 155.2C146.51 152.94 155.22 154.62 156.15 158Z" fill="#263238"/>
<path d="M149.26 174.42C149.109 175.085 149.108 175.776 149.256 176.442C149.405 177.108 149.7 177.732 150.12 178.27C151.18 179.43 152.89 177.96 153.58 175.93C154.18 174.12 154.39 171.29 152.83 170.93C151.27 170.57 149.59 172.47 149.26 174.42Z" fill="#E4897B"/>
<path d="M150.36 190.05C148.927 194.05 147.647 197.883 146.52 201.55C145.8 203.83 145.14 206.06 144.52 208.21C144.013 210.017 143.54 211.77 143.1 213.47C142.89 214.29 142.68 215.1 142.48 215.9C141.38 220.31 140.48 224.33 139.79 227.9C138.625 233.473 137.76 239.104 137.2 244.77L98 239.83C99.36 233.09 100.42 227.2 101.9 220.83C102.72 217.35 103.65 213.73 104.9 209.76C105.74 206.91 106.72 203.88 107.9 200.59C111.84 189.29 115.47 186.16 115.47 186.16C130.46 183.76 150.36 190.05 150.36 190.05Z" fill="#263238"/>
<path d="M163.41 224.84L170.41 225.89C171.999 225.385 173.634 225.033 175.29 224.84C177.09 224.692 178.9 224.692 180.7 224.84C180.7 224.84 183.86 226.03 183.86 229.06C183.86 229.06 176.48 231.06 173.64 229.85L163.42 229.06L163.41 224.84Z" fill="#E4897B"/>
<path d="M120.08 354.11L127.39 354.24L131.03 337.39L123.73 337.26L120.08 354.11Z" fill="#EBB376"/>
<path opacity="0.2" d="M123.73 337.26L131.03 337.4L128.95 347.03L121.72 346.55L123.73 337.26Z" fill="black"/>
<path d="M143.57 312.85C140.785 323.574 137.225 334.081 132.92 344.29L119.59 343.29C119.59 343.29 125.06 321.92 127.04 302.34C128.27 290.26 128.16 280.26 124.62 279.49C122.4 279 117.19 279.01 110.51 279.17V254.27C129.24 258.12 147.88 265.37 149.3 271.19C151.28 279.38 147.82 296.72 143.57 312.85Z" fill="#9440FF"/>
<path d="M118.17 343.89L134.05 344.95L136.39 338.08L118.89 337.27L118.17 343.89Z" fill="#9440FF"/>
<path opacity="0.2" d="M118.17 343.89L134.05 344.95L136.39 338.08L118.89 337.27L118.17 343.89Z" fill="white"/>
<path d="M128.49 353.88H128.64C128.64 353.88 128.81 353.93 128.83 353.95C128.85 353.97 128.83 353.95 128.83 353.95H128.89C129.508 354.146 130.145 354.273 130.79 354.33C131.271 354.419 131.768 354.323 132.18 354.06C132.311 353.946 132.406 353.797 132.454 353.63C132.502 353.463 132.5 353.286 132.45 353.12C132.434 353.011 132.392 352.908 132.328 352.82C132.263 352.731 132.178 352.659 132.08 352.61C131.389 352.5 130.682 352.634 130.08 352.99C130.51 352.536 130.765 351.944 130.8 351.32C130.771 351.172 130.694 351.038 130.583 350.937C130.471 350.836 130.33 350.774 130.18 350.76C129.896 350.718 129.606 350.786 129.37 350.95C128.6 351.61 128.48 353.68 128.48 353.8L128.49 353.88ZM129.28 353.46L129.13 353.54C129.083 352.75 129.297 351.966 129.74 351.31C129.788 351.262 129.846 351.224 129.91 351.2C129.974 351.176 130.042 351.166 130.11 351.17H130.2C130.44 351.17 130.49 351.33 130.5 351.43C130.346 352.229 129.913 352.948 129.28 353.46V353.46ZM129.38 353.82C130.26 353.33 131.51 352.82 131.98 353.01C132.027 353.034 132.067 353.07 132.096 353.114C132.126 353.157 132.144 353.208 132.15 353.26C132.179 353.365 132.18 353.476 132.152 353.582C132.124 353.687 132.068 353.783 131.99 353.86C131.63 354.18 130.67 354.16 129.38 353.82Z" fill="#9440FF"/>
<path d="M128.32 353L120.13 352.49C119.994 352.476 119.857 352.516 119.75 352.603C119.644 352.689 119.575 352.814 119.56 352.95V352.95L118.76 359.4C118.738 359.739 118.851 360.073 119.073 360.33C119.296 360.586 119.611 360.744 119.95 360.77C122.81 360.9 124.18 360.82 127.78 361.02C130.975 361.349 134.19 361.449 137.4 361.32C140.4 361.03 140.07 358.02 138.76 357.88C135.63 357.52 131.5 355.23 129.54 353.49C129.2 353.194 128.77 353.021 128.32 353Z" fill="#263238"/>
<path opacity="0.2" d="M143.57 312.85C138.57 309.7 132.76 305.99 127.04 302.32C128.27 290.24 128.16 280.24 124.62 279.47C122.4 278.98 117.19 278.99 110.51 279.15V254.27C129.24 258.12 147.88 265.37 149.3 271.19C151.28 279.38 147.82 296.72 143.57 312.85Z" fill="black"/>
<path d="M162.81 354.11L170.12 354.24L173.76 337.39L166.46 337.26L162.81 354.11Z" fill="#EBB376"/>
<path opacity="0.2" d="M166.46 337.26L173.76 337.4L171.68 347.03L164.45 346.55L166.46 337.26Z" fill="black"/>
<path d="M136.27 251.83L137.45 242.39L99.28 236.1C99.28 236.1 86.79 260.84 92.9 273C98.51 284.12 158.17 277.49 167.35 279.5C176.53 281.51 162.35 343.31 162.35 343.31L175.69 344.31C175.69 344.31 196.29 288.71 192.06 271.22C190.18 263.57 158.73 253.46 136.27 251.83Z" fill="#9440FF"/>
<path d="M160.9 343.89L176.78 344.95L179.12 338.08L161.62 337.27L160.9 343.89Z" fill="#9440FF"/>
<path opacity="0.2" d="M160.9 343.89L176.78 344.95L179.12 338.08L161.62 337.27L160.9 343.89Z" fill="white"/>
<path d="M171.22 353.88H171.37C171.37 353.88 171.54 353.93 171.56 353.95C171.58 353.97 171.56 353.95 171.56 353.95H171.62C172.238 354.146 172.875 354.273 173.52 354.33C174.001 354.419 174.498 354.323 174.91 354.06C175.041 353.946 175.136 353.797 175.184 353.63C175.232 353.463 175.23 353.286 175.18 353.12C175.164 353.011 175.122 352.908 175.058 352.82C174.993 352.731 174.908 352.659 174.81 352.61C174.119 352.5 173.412 352.634 172.81 352.99C173.24 352.536 173.495 351.944 173.53 351.32C173.501 351.172 173.424 351.038 173.313 350.937C173.201 350.836 173.06 350.774 172.91 350.76C172.626 350.718 172.336 350.786 172.1 350.95C171.33 351.61 171.21 353.68 171.21 353.8L171.22 353.88ZM172.01 353.46L171.86 353.54C171.813 352.75 172.027 351.966 172.47 351.31C172.518 351.262 172.576 351.224 172.64 351.2C172.704 351.176 172.772 351.166 172.84 351.17H172.93C173.17 351.17 173.22 351.33 173.23 351.43C173.077 352.232 172.641 352.953 172 353.46H172.01ZM172.11 353.82C172.99 353.33 174.24 352.82 174.71 353.01C174.757 353.034 174.797 353.07 174.826 353.114C174.856 353.157 174.874 353.208 174.88 353.26C174.909 353.365 174.91 353.476 174.882 353.582C174.854 353.687 174.798 353.783 174.72 353.86C174.36 354.18 173.4 354.16 172.11 353.82V353.82Z" fill="#9440FF"/>
<path d="M171.05 353L162.86 352.49C162.724 352.476 162.587 352.516 162.48 352.603C162.374 352.689 162.305 352.814 162.29 352.95V352.95L161.49 359.4C161.468 359.739 161.581 360.073 161.803 360.33C162.026 360.586 162.341 360.744 162.68 360.77C165.54 360.9 166.91 360.82 170.51 361.02C173.705 361.349 176.92 361.449 180.13 361.32C183.18 361.03 182.81 358.02 181.49 357.88C178.36 357.52 174.23 355.23 172.27 353.49C171.93 353.194 171.5 353.021 171.05 353Z" fill="#263238"/>
<path d="M97.88 240.4L115.56 242.72L116.14 240.11L98.42 237.53L97.88 240.4Z" fill="black"/>
<path d="M117.61 240.13L117.39 242.72L133.74 244.97V242.4L117.61 240.13Z" fill="black"/>
<path d="M134.75 242.55V244.97L137.13 245.28V242.94L134.75 242.55Z" fill="black"/>
<path opacity="0.2" d="M146.52 201.55C145.8 203.83 145.14 206.06 144.52 208.21C144.013 210.017 143.54 211.77 143.1 213.47C141.87 206.77 144.1 198.77 144.1 198.77L146.52 201.55Z" fill="black"/>
<path d="M150.36 190C153.55 190.65 154.6 215.44 154.74 218.08C154.88 220.72 170.4 225.85 170.4 225.85V229.46C170.4 229.46 153.76 228.3 149.87 226.71C145.98 225.12 145 202.16 145 202.16L150.36 190Z" fill="#E4897B"/>
<path d="M150.36 190C153.29 190.91 154.74 207.26 154.74 207.26L145.68 211L143.43 201.91C143.43 201.91 142.79 200.06 144.05 196.16C145.88 190.47 150.36 190 150.36 190Z" fill="#263238"/>
<path d="M82.78 271.52H155C157.098 271.52 159.11 272.353 160.593 273.837C162.077 275.32 162.91 277.332 162.91 279.43V283.66H74.87V279.43C74.87 277.332 75.7034 275.32 77.1868 273.837C78.6702 272.353 80.6821 271.52 82.78 271.52V271.52Z" fill="#9440FF"/>
<path d="M106.27 241.45H154.76C155.344 241.45 155.921 241.582 156.448 241.836C156.974 242.09 157.436 242.459 157.8 242.917C158.163 243.375 158.418 243.909 158.547 244.479C158.675 245.049 158.673 245.641 158.54 246.21L149.87 283.66H147.87L155.25 250.84C155.379 250.273 155.379 249.684 155.249 249.116C155.119 248.549 154.863 248.019 154.5 247.564C154.137 247.109 153.676 246.743 153.151 246.491C152.626 246.239 152.052 246.109 151.47 246.11H107.26L106.27 241.45Z" fill="#263238"/>
<path d="M124.63 285V316.65C124.63 317.138 124.436 317.606 124.091 317.951C123.746 318.296 123.278 318.49 122.79 318.49H115C114.512 318.49 114.044 318.296 113.699 317.951C113.354 317.606 113.16 317.138 113.16 316.65V285H124.63Z" fill="#263238"/>
<path d="M81.79 358.06C81.79 357.395 81.593 356.746 81.2237 356.193C80.8545 355.641 80.3298 355.21 79.7158 354.956C79.1019 354.701 78.4263 354.635 77.7745 354.765C77.1227 354.894 76.524 355.214 76.0541 355.684C75.5842 356.154 75.2642 356.753 75.1346 357.405C75.0049 358.056 75.0715 358.732 75.3258 359.346C75.5801 359.96 76.0107 360.485 76.5633 360.854C77.1158 361.223 77.7655 361.42 78.43 361.42C79.3211 361.42 80.1758 361.066 80.8059 360.436C81.436 359.806 81.79 358.951 81.79 358.06V358.06Z" fill="#263238"/>
<path opacity="0.2" d="M80.11 358.06C80.11 357.728 80.0115 357.403 79.8269 357.127C79.6423 356.85 79.3799 356.635 79.0729 356.508C78.7659 356.381 78.4281 356.347 78.1023 356.412C77.7764 356.477 77.477 356.637 77.2421 356.872C77.0071 357.107 76.8471 357.406 76.7823 357.732C76.7175 358.058 76.7507 358.396 76.8779 358.703C77.005 359.01 77.2204 359.272 77.4966 359.457C77.7729 359.641 78.0977 359.74 78.43 359.74C78.8748 359.737 79.3006 359.56 79.615 359.245C79.9295 358.931 80.1074 358.505 80.11 358.06Z" fill="white"/>
<path d="M162.74 358.06C162.742 357.393 162.546 356.74 162.176 356.184C161.807 355.628 161.28 355.195 160.664 354.938C160.048 354.682 159.37 354.615 158.715 354.744C158.06 354.874 157.459 355.195 156.987 355.667C156.515 356.139 156.194 356.74 156.064 357.395C155.935 358.05 156.002 358.728 156.258 359.344C156.515 359.96 156.948 360.487 157.504 360.856C158.06 361.226 158.713 361.422 159.38 361.42C160.27 361.417 161.123 361.063 161.753 360.433C162.383 359.803 162.737 358.95 162.74 358.06V358.06Z" fill="#263238"/>
<path opacity="0.2" d="M161.06 358.06C161.06 357.728 160.961 357.403 160.777 357.127C160.592 356.85 160.33 356.635 160.023 356.508C159.716 356.381 159.378 356.347 159.052 356.412C158.726 356.477 158.427 356.637 158.192 356.872C157.957 357.107 157.797 357.406 157.732 357.732C157.667 358.058 157.701 358.396 157.828 358.703C157.955 359.01 158.17 359.272 158.447 359.457C158.723 359.641 159.048 359.74 159.38 359.74C159.825 359.737 160.251 359.56 160.565 359.245C160.88 358.931 161.057 358.505 161.06 358.06V358.06Z" fill="white"/>
<path d="M121.68 343.3V307.12H116.12V343.3C94.46 343.86 81.29 351.43 78.66 353.09C78.5047 353.182 78.3772 353.314 78.291 353.472C78.2047 353.631 78.1629 353.81 78.17 353.99V356.99C78.1687 357.13 78.1951 357.269 78.2478 357.399C78.3005 357.528 78.3783 357.647 78.4769 357.746C78.5755 357.845 78.6928 357.924 78.822 357.978C78.9513 358.032 79.09 358.06 79.23 358.06V358.06C79.4172 358.058 79.6007 358.008 79.7621 357.913C79.9235 357.818 80.0573 357.683 80.15 357.52L81.44 355.26C92.662 351.681 104.343 349.748 116.12 349.52V355.52C116.12 355.701 116.156 355.88 116.225 356.047C116.295 356.213 116.397 356.365 116.525 356.492C116.653 356.62 116.805 356.72 116.973 356.789C117.14 356.857 117.319 356.891 117.5 356.89H120.31C120.673 356.89 121.022 356.746 121.279 356.489C121.536 356.232 121.68 355.883 121.68 355.52V349.52C133.46 349.747 145.145 351.681 156.37 355.26L157.65 357.52C157.744 357.684 157.879 357.82 158.042 357.915C158.206 358.01 158.391 358.06 158.58 358.06C158.862 358.057 159.132 357.943 159.33 357.743C159.529 357.543 159.64 357.272 159.64 356.99V353.99C159.647 353.81 159.605 353.631 159.519 353.472C159.433 353.314 159.305 353.182 159.15 353.09C156.51 351.43 143.35 343.86 121.68 343.3Z" fill="#263238"/>
<path d="M120.73 354.69H117.08V361.42H120.73V354.69Z" fill="#263238"/>
<path opacity="0.2" d="M124.63 284.97H113.19V298.12H124.63V284.97Z" fill="black"/>
<path d="M165.35 281.71V285.49C165.35 285.744 165.3 285.996 165.202 286.231C165.105 286.466 164.961 286.679 164.781 286.858C164.601 287.038 164.387 287.18 164.152 287.276C163.916 287.372 163.664 287.421 163.41 287.42H74.41C74.1562 287.421 73.9046 287.372 73.6699 287.276C73.4351 287.179 73.2218 287.037 73.0423 286.858C72.8628 286.678 72.7207 286.465 72.6242 286.23C72.5277 285.995 72.4787 285.744 72.48 285.49V281.71C72.48 281.198 72.6833 280.707 73.0453 280.345C73.4072 279.983 73.8981 279.78 74.41 279.78H163.41C163.923 279.78 164.415 279.983 164.778 280.345C165.142 280.706 165.347 281.197 165.35 281.71Z" fill="#263238"/>
<path d="M124.4 283.66H72.47C72.47 283.66 56 256.22 56 210.88V194.23C56.0027 190.943 57.3102 187.792 59.6354 185.468C61.9606 183.145 65.113 181.84 68.4 181.84H90.4C93.6196 181.838 96.7133 183.09 99.026 185.33C101.339 187.57 102.689 190.622 102.79 193.84C103.42 217.24 106.86 267.83 124.4 283.66Z" fill="#263238"/>
<path opacity="0.2" d="M113 283.66H74.81C74.0879 283.663 73.379 283.467 72.7614 283.093C72.1438 282.719 71.6415 282.181 71.31 281.54C67.55 274.3 56 248.87 56 210.88V194.23C56 190.944 57.3054 187.793 59.6289 185.469C61.9525 183.145 65.104 181.84 68.39 181.84H87.39C90.6096 181.838 93.7033 183.09 96.016 185.33C98.3287 187.57 99.6787 190.622 99.78 193.84C100.35 214.71 103.15 257.32 116.25 277.45C116.646 278.047 116.874 278.739 116.911 279.454C116.948 280.169 116.793 280.881 116.461 281.516C116.128 282.15 115.632 282.684 115.023 283.061C114.415 283.438 113.716 283.645 113 283.66Z" fill="white"/>
<path opacity="0.2" d="M165.35 281.71V285.49C165.35 286.002 165.147 286.493 164.785 286.855C164.423 287.217 163.932 287.42 163.42 287.42H123.53C123.188 287.421 122.849 287.355 122.532 287.225C122.215 287.095 121.928 286.904 121.685 286.662C121.443 286.42 121.25 286.133 121.119 285.817C120.988 285.501 120.92 285.162 120.92 284.82V282.39C120.92 281.698 121.195 281.034 121.684 280.544C122.174 280.055 122.838 279.78 123.53 279.78H163.41C163.923 279.78 164.415 279.983 164.778 280.345C165.142 280.706 165.347 281.197 165.35 281.71V281.71Z" fill="black"/>
<path d="M72.45 180.37L75.75 176.05C75.75 176.05 89.84 176.69 90.18 181.84C90.52 186.99 72.45 180.37 72.45 180.37Z" fill="#9440FF"/>
<path d="M63.19 193.3C63.19 193.3 64.05 216.2 63.19 275.3C63.19 277.3 55.73 277.22 55.19 275.3C53.4 268.57 55.19 214.83 55.19 214.83" fill="#9440FF"/>
<path d="M55.36 275.6L62.95 275.86V279.65L55.36 279.26V275.6Z" fill="#9440FF"/>
<path opacity="0.2" d="M63.19 193.3C63.19 193.3 64.05 216.2 63.19 275.3C63.19 277.3 55.73 277.22 55.19 275.3C53.4 268.57 55.19 214.83 55.19 214.83" fill="white"/>
<path d="M51.61 263.22C51.2 252.32 49.71 202.22 55.97 185.62C55.97 185.62 61.86 178.14 81.79 178.14C101.72 178.14 107.72 192.29 107.72 192.29C107.72 192.29 108.58 215.18 107.72 274.29C107.72 276.29 100.26 276.22 99.72 274.29C97.93 267.57 99.72 213.82 99.72 213.82L95.72 262.72C95.7054 262.884 95.6575 263.043 95.5792 263.188C95.501 263.333 95.3939 263.46 95.2648 263.562C95.1356 263.664 94.9869 263.739 94.8279 263.781C94.6689 263.824 94.5029 263.834 94.34 263.81C88.05 262.81 60.34 258.92 53.01 263.92C52.8772 264.005 52.7245 264.055 52.5668 264.063C52.4091 264.072 52.2519 264.039 52.1107 263.969C51.9695 263.898 51.849 263.792 51.7612 263.661C51.6735 263.529 51.6213 263.378 51.61 263.22Z" fill="#9440FF"/>
<path d="M99.89 274.59L107.48 274.85V278.64L99.89 278.25V274.59Z" fill="#9440FF"/>
<path d="M94.75 263.86L94.15 267.86C94.15 267.86 63.22 261.12 53.2 268.3L52.6 263.87C52.6 263.87 60.34 256.73 94.75 263.86Z" fill="#9440FF"/>
<path opacity="0.4" d="M51.61 263.22C51.2 252.32 49.71 202.22 55.97 185.62C55.97 185.62 61.86 178.14 81.79 178.14C101.72 178.14 107.72 192.29 107.72 192.29C107.72 192.29 108.58 215.18 107.72 274.29C107.72 276.29 100.26 276.22 99.72 274.29C97.93 267.57 99.72 213.82 99.72 213.82L95.72 262.72C95.7054 262.884 95.6575 263.043 95.5792 263.188C95.501 263.333 95.3939 263.46 95.2648 263.562C95.1356 263.664 94.9869 263.739 94.8279 263.781C94.6689 263.824 94.5029 263.834 94.34 263.81C88.05 262.81 60.34 258.92 53.01 263.92C52.8772 264.005 52.7245 264.055 52.5668 264.063C52.4091 264.072 52.2519 264.039 52.1107 263.969C51.9695 263.898 51.849 263.792 51.7612 263.661C51.6735 263.529 51.6213 263.378 51.61 263.22Z" fill="white"/>
<path opacity="0.2" d="M99.75 213.82C99.75 213.82 100.19 198.3 107.75 192.29C107.72 192.29 98.3 196.34 99.75 213.82Z" fill="black"/>
<path opacity="0.2" d="M77.07 179.93C77.07 179.93 67.97 184.93 66.52 253.06C66.52 253.06 62.56 184.33 77.07 179.93Z" fill="black"/>
</svg>
